<svg width="256" height="256" viewBox="0 0 256 256" fill="none" xmlns="http://www.w3.org/2000/svg">
<path d="M176.3 99.9C176.844 100.462 177.27 101.126 177.554 101.855C177.839 102.583 177.976 103.36 177.957 104.142C177.939 104.923 177.765 105.693 177.446 106.407C177.127 107.121 176.67 107.765 176.1 108.3L117.5 164.3C116.359 165.368 114.862 165.974 113.3 166C111.766 165.978 110.299 165.37 109.2 164.3L79.9001 136.3C78.7596 135.213 78.0979 133.717 78.0604 132.141C78.0228 130.566 78.6127 129.04 79.7001 127.9C80.7874 126.76 82.2833 126.098 83.8586 126.06C85.4339 126.023 86.9596 126.613 88.1001 127.7L113.3 151.7L167.9 99.7C168.462 99.1565 169.126 98.7302 169.855 98.4457C170.583 98.1613 171.36 98.0244 172.142 98.043C172.923 98.0616 173.694 98.2353 174.407 98.5541C175.121 98.8729 175.765 99.3304 176.3 99.9ZM230 128C230 148.174 224.018 167.894 212.81 184.668C201.602 201.442 185.672 214.516 167.034 222.236C148.396 229.956 127.887 231.976 108.101 228.04C88.3148 224.104 70.1401 214.39 55.8752 200.125C41.6102 185.86 31.8956 167.685 27.9599 147.899C24.0243 128.113 26.0442 107.604 33.7643 88.9663C41.4845 70.3282 54.5581 54.398 71.3319 43.1901C88.1057 31.9822 107.826 26 128 26C155.036 26.0529 180.949 36.8162 200.067 55.9335C219.184 75.0508 229.947 100.964 230 128ZM218 128C218 110.2 212.722 92.7991 202.832 77.9987C192.943 63.1983 178.887 51.6627 162.442 44.8508C145.996 38.039 127.9 36.2567 110.442 39.7293C92.9836 43.202 76.9472 51.7737 64.3604 64.3604C51.7737 76.9471 43.202 92.9836 39.7294 110.442C36.2567 127.9 38.039 145.996 44.8509 162.442C51.6628 178.887 63.1983 192.943 77.9987 202.832C92.7992 212.722 110.2 218 128 218C151.861 217.974 174.738 208.483 191.61 191.61C208.483 174.738 217.974 151.861 218 128Z" fill="#21A67A"/>
</svg>
