<svg width="30" height="30" viewBox="0 0 30 30" fill="none" xmlns="http://www.w3.org/2000/svg">
<path d="M25.3125 4.6875H4.6875C4.19022 4.6875 3.71331 4.88504 3.36167 5.23667C3.01004 5.58831 2.8125 6.06522 2.8125 6.5625V23.4375C2.8125 23.9348 3.01004 24.4117 3.36167 24.7633C3.71331 25.115 4.19022 25.3125 4.6875 25.3125H25.3125C25.8098 25.3125 26.2867 25.115 26.6383 24.7633C26.99 24.4117 27.1875 23.9348 27.1875 23.4375V6.5625C27.1875 6.06522 26.99 5.58831 26.6383 5.23667C26.2867 4.88504 25.8098 4.6875 25.3125 4.6875ZM25.3125 6.5625V18.6035L22.2574 15.5496C22.0833 15.3755 21.8766 15.2373 21.6491 15.143C21.4216 15.0488 21.1777 15.0003 20.9314 15.0003C20.6852 15.0003 20.4413 15.0488 20.2138 15.143C19.9863 15.2373 19.7796 15.3755 19.6055 15.5496L17.2617 17.8934L12.1055 12.7371C11.7539 12.3857 11.2771 12.1884 10.7801 12.1884C10.283 12.1884 9.80628 12.3857 9.45469 12.7371L4.6875 17.5043V6.5625H25.3125ZM4.6875 20.1562L10.7812 14.0625L20.1562 23.4375H4.6875V20.1562ZM25.3125 23.4375H22.8082L18.5895 19.2188L20.9332 16.875L25.3125 21.2555V23.4375ZM16.875 11.7188C16.875 11.4406 16.9575 11.1687 17.112 10.9375C17.2665 10.7062 17.4861 10.526 17.7431 10.4195C18.0001 10.3131 18.2828 10.2853 18.5556 10.3395C18.8284 10.3938 19.079 10.5277 19.2756 10.7244C19.4723 10.921 19.6062 11.1716 19.6605 11.4444C19.7147 11.7172 19.6869 11.9999 19.5805 12.2569C19.474 12.5139 19.2938 12.7335 19.0625 12.888C18.8313 13.0425 18.5594 13.125 18.2812 13.125C17.9083 13.125 17.5506 12.9768 17.2869 12.7131C17.0232 12.4494 16.875 12.0917 16.875 11.7188Z" fill="#D99BFF"/>
</svg>
