<svg width="256" height="256" viewBox="0 0 256 256" fill="none" xmlns="http://www.w3.org/2000/svg">
<path d="M164.24 100.24L136.48 128L164.24 155.76C164.83 156.309 165.302 156.972 165.63 157.708C165.958 158.444 166.135 159.238 166.149 160.044C166.163 160.849 166.015 161.65 165.713 162.397C165.411 163.144 164.962 163.823 164.392 164.392C163.823 164.962 163.144 165.411 162.397 165.713C161.65 166.015 160.849 166.163 160.044 166.149C159.238 166.135 158.444 165.958 157.708 165.63C156.972 165.302 156.309 164.829 155.76 164.24L128 136.48L100.24 164.24C99.1026 165.3 97.5983 165.877 96.0439 165.849C94.4895 165.822 93.0064 165.192 91.9071 164.093C90.8078 162.994 90.1781 161.511 90.1506 159.956C90.1232 158.402 90.7002 156.897 91.76 155.76L119.52 128L91.76 100.24C90.7002 99.1026 90.1232 97.5982 90.1506 96.0438C90.1781 94.4894 90.8078 93.0063 91.9071 91.907C93.0064 90.8077 94.4895 90.178 96.0439 90.1506C97.5983 90.1232 99.1026 90.7002 100.24 91.76L128 119.52L155.76 91.76C156.897 90.7002 158.402 90.1232 159.956 90.1506C161.511 90.178 162.994 90.8077 164.093 91.907C165.192 93.0063 165.822 94.4894 165.849 96.0438C165.877 97.5982 165.3 99.1026 164.24 100.24ZM230 128C230 148.174 224.018 167.894 212.81 184.668C201.602 201.442 185.672 214.516 167.034 222.236C148.396 229.956 127.887 231.976 108.101 228.04C88.3148 224.104 70.1401 214.39 55.8752 200.125C41.6102 185.86 31.8956 167.685 27.9599 147.899C24.0243 128.113 26.0442 107.604 33.7643 88.9663C41.4845 70.3282 54.5581 54.398 71.3319 43.1901C88.1057 31.9822 107.826 26 128 26C155.042 26.0318 180.968 36.7884 200.09 55.9102C219.212 75.032 229.968 100.958 230 128ZM218 128C218 110.2 212.722 92.7991 202.832 77.9987C192.943 63.1983 178.887 51.6627 162.442 44.8508C145.996 38.039 127.9 36.2567 110.442 39.7293C92.9836 43.202 76.9472 51.7737 64.3604 64.3604C51.7737 76.9471 43.202 92.9836 39.7294 110.442C36.2567 127.9 38.039 145.996 44.8509 162.442C51.6628 178.887 63.1983 192.943 77.9987 202.832C92.7991 212.722 110.2 218 128 218C151.861 217.974 174.738 208.483 191.61 191.61C208.483 174.738 217.974 151.861 218 128Z" fill="#C22B3A"/>
</svg>
